<svg id="svg" xmlns="http://www.w3.org/2000/svg" xmlns:xlink="http://www.w3.org/1999/xlink" width="512" height="439" viewBox="0, 0, 512,439"><g id="svgg"><path id="path0" d="M351.423 11.375 C 350.728 12.131,349.655 13.594,349.039 14.625 C 348.423 15.656,347.852 16.500,347.770 16.500 C 347.689 16.500,346.814 16.163,345.827 15.750 C 340.085 13.351,333.873 16.020,320.414 26.673 C 312.135 33.226,310.733 33.995,307.050 34.008 C 304.209 34.017,303.739 34.306,302.761 36.646 C 301.210 40.360,301.184 44.230,302.700 46.032 C 305.886 49.818,305.851 50.056,301.815 52.134 C 286.621 59.956,278.800 77.030,282.721 93.821 L 283.555 97.391 287.703 98.431 C 296.796 100.712,301.937 104.809,301.989 109.816 C 301.998 110.648,302.466 111.000,304.125 111.423 C 310.526 113.057,311.245 115.531,311.271 136.000 C 311.291 152.061,311.339 152.891,312.430 156.170 C 313.731 160.081,313.570 160.419,309.844 161.582 C 308.196 162.096,307.468 162.025,304.461 161.057 C 299.319 159.401,296.935 160.655,300.943 162.908 C 303.051 164.092,307.120 164.310,312.500 163.526 C 315.843 163.039,315.439 162.602,315.989 167.306 C 316.695 173.338,317.754 175.827,320.995 179.072 C 323.512 181.592,323.743 181.992,323.147 182.807 C 320.808 186.005,321.299 190.249,325.035 199.130 L 327.595 205.218 326.173 206.358 C 322.419 209.365,319.046 208.920,313.681 204.708 C 309.473 201.405,306.752 199.891,305.390 200.095 C 304.559 200.220,304.860 200.575,306.929 201.911 C 310.447 204.183,313.438 208.562,317.280 217.067 C 320.513 224.222,321.893 226.773,322.308 226.358 C 322.434 226.233,322.078 224.967,321.518 223.546 C 319.334 218.004,321.307 215.606,326.058 218.030 C 328.301 219.174,330.163 219.154,330.386 217.983 C 330.487 217.452,329.856 217.035,328.336 216.629 C 325.045 215.748,321.093 210.240,322.642 208.692 C 323.941 207.393,336.180 211.288,345.182 215.865 C 352.145 219.405,351.820 219.652,343.002 217.519 C 338.807 216.505,335.911 216.050,334.967 216.257 C 333.313 216.621,333.456 217.500,335.170 217.500 C 335.781 217.500,338.474 218.753,341.153 220.284 C 347.746 224.050,349.116 224.254,349.915 221.587 C 351.053 217.788,353.638 216.316,363.176 214.037 C 369.893 212.432,371.694 211.719,373.177 210.080 L 374.102 209.058 369.676 209.315 C 364.108 209.639,362.454 208.833,361.583 205.371 C 361.274 204.144,360.664 202.843,360.227 202.481 C 357.050 199.845,357.277 196.631,360.987 191.711 C 364.741 186.732,364.828 187.000,359.471 187.000 C 351.295 187.000,348.260 185.599,350.767 182.982 L 352.187 181.500 347.969 181.493 C 338.342 181.478,325.797 177.025,321.260 172.011 C 319.881 170.487,320.676 167.490,323.322 164.241 L 325.552 161.503 327.897 162.752 C 332.390 165.143,335.824 164.838,337.024 161.941 C 337.791 160.091,337.881 160.160,333.821 159.511 C 327.555 158.510,323.500 155.675,323.500 152.295 C 323.500 149.998,323.850 149.870,326.264 151.284 C 329.595 153.237,336.542 154.780,341.125 154.585 C 346.649 154.351,345.970 153.878,337.960 152.382 C 328.631 150.640,326.586 149.615,325.476 146.125 C 325.017 144.681,324.665 143.503,324.695 143.506 C 324.929 143.534,330.938 145.489,331.625 145.761 C 332.297 146.027,332.500 145.854,332.500 145.015 C 332.500 143.219,335.020 141.186,338.436 140.228 C 345.483 138.251,345.795 136.193,339.017 136.408 C 322.194 136.941,320.648 130.784,333.272 113.529 C 343.311 99.806,343.700 98.690,339.743 94.955 C 336.194 91.606,333.292 87.399,331.151 82.500 C 328.919 77.393,328.876 77.506,332.933 77.846 C 334.821 78.004,337.464 77.962,338.808 77.753 L 341.250 77.372 339.661 76.811 C 334.531 75.000,338.935 74.651,346.121 76.298 C 356.500 78.677,365.712 78.018,365.374 74.920 C 365.151 72.881,373.264 69.247,379.352 68.659 C 389.013 67.726,392.731 74.490,395.023 97.168 C 396.998 116.712,398.463 122.847,402.475 128.386 C 404.310 130.919,404.293 130.733,402.688 130.826 C 400.591 130.947,399.048 132.763,400.126 133.840 C 400.870 134.585,401.135 134.603,402.360 133.991 C 403.125 133.609,403.873 133.245,404.024 133.182 C 405.295 132.645,405.763 134.286,406.000 140.106 L 406.250 146.250 410.190 146.250 C 415.681 146.250,415.744 146.418,413.022 153.834 C 409.815 162.571,409.872 166.701,413.258 170.750 L 414.512 172.250 414.131 170.750 C 413.383 167.804,413.692 161.867,414.700 159.838 C 417.412 154.375,421.644 156.301,426.270 165.103 C 428.779 169.878,431.192 172.206,434.440 172.986 C 438.052 173.852,438.500 173.561,438.500 170.355 C 438.500 160.966,443.303 157.628,460.976 154.733 C 469.700 153.303,473.860 151.394,476.041 147.817 C 477.588 145.280,477.349 144.527,475.153 145.022 C 473.118 145.481,472.500 145.298,472.500 144.238 C 472.500 143.243,469.625 140.090,467.909 139.203 C 466.075 138.255,466.422 137.709,469.088 137.352 C 473.173 136.804,479.672 132.946,477.625 132.285 C 477.144 132.129,476.101 131.481,475.307 130.844 L 473.865 129.686 475.682 127.305 C 478.383 123.767,478.389 121.519,475.725 111.674 C 475.639 111.357,474.412 110.849,472.998 110.546 C 463.553 108.521,458.639 102.592,452.002 85.214 C 446.059 69.652,442.004 64.134,434.409 61.272 C 432.368 60.503,431.823 59.963,430.166 57.070 C 425.998 49.791,419.081 44.086,403.750 35.280 C 399.075 32.595,393.726 29.296,391.864 27.949 C 387.913 25.091,388.167 25.153,386.920 26.738 C 385.833 28.119,384.013 28.718,378.500 29.505 L 374.750 30.041 373.375 28.513 C 371.534 26.466,371.634 25.719,374.046 23.514 L 376.093 21.644 374.503 21.326 C 371.902 20.805,372.947 19.748,376.048 19.763 C 378.155 19.773,379.188 20.076,380.741 21.138 C 383.979 23.353,386.479 21.400,383.625 18.884 C 378.683 14.527,359.204 9.206,360.249 12.498 C 360.524 13.364,360.342 13.499,358.909 13.493 C 355.706 13.480,354.872 13.017,355.189 11.429 C 355.590 9.425,353.246 9.391,351.423 11.375 M47.000 15.750 C 47.000 17.458,47.048 17.500,49.000 17.500 C 50.952 17.500,51.000 17.458,51.000 15.750 C 51.000 14.042,50.952 14.000,49.000 14.000 C 47.048 14.000,47.000 14.042,47.000 15.750 M53.000 15.750 C 53.000 17.417,53.083 17.500,54.750 17.500 C 56.417 17.500,56.500 17.417,56.500 15.750 C 56.500 14.083,56.417 14.000,54.750 14.000 C 53.083 14.000,53.000 14.083,53.000 15.750 M17.126 15.125 C 17.253 15.469,18.342 19.969,19.545 25.125 L 21.731 34.500 24.051 34.500 L 26.372 34.500 27.956 28.375 C 30.117 20.021,30.244 19.757,30.902 22.250 C 31.192 23.350,32.043 26.567,32.793 29.399 L 34.155 34.548 36.441 34.399 L 38.727 34.250 40.770 25.750 C 41.894 21.075,42.972 16.631,43.166 15.875 C 43.511 14.532,43.469 14.500,41.349 14.500 L 39.179 14.500 37.769 21.000 C 36.994 24.575,36.305 27.500,36.238 27.500 C 36.171 27.500,35.386 24.564,34.494 20.976 L 32.872 14.452 30.320 14.601 L 27.767 14.750 26.220 20.500 C 25.369 23.663,24.568 26.560,24.440 26.940 C 24.312 27.319,23.566 24.675,22.783 21.065 L 21.359 14.500 19.126 14.500 C 17.549 14.500,16.961 14.684,17.126 15.125 M87.000 24.500 L 87.000 34.500 89.000 34.500 C 90.436 34.500,91.000 34.290,91.000 33.757 C 91.000 33.151,91.299 33.197,92.625 34.005 C 98.201 37.405,103.677 30.179,100.780 23.245 C 99.347 19.814,94.521 18.468,91.961 20.785 C 91.021 21.636,91.000 21.575,91.000 18.077 L 91.000 14.500 89.000 14.500 L 87.000 14.500 87.000 24.500 M67.111 20.611 C 66.157 21.566,66.000 21.601,66.000 20.861 C 66.000 20.210,65.573 20.000,64.250 20.000 L 62.500 20.000 62.500 27.250 L 62.500 34.500 64.500 34.500 L 66.500 34.500 66.500 29.750 C 66.500 24.374,67.336 22.689,69.709 23.284 C 70.739 23.543,70.950 23.364,71.255 21.979 C 71.823 19.393,69.196 18.526,67.111 20.611 M126.367 20.497 C 125.246 21.379,125.000 21.431,125.000 20.786 C 125.000 20.221,124.508 20.000,123.250 20.000 L 121.500 20.000 121.500 27.250 L 121.500 34.500 123.500 34.500 L 125.500 34.500 125.500 29.750 C 125.500 24.386,126.338 22.689,128.695 23.281 C 129.750 23.546,131.573 20.906,130.841 20.174 C 130.038 19.372,127.572 19.550,126.367 20.497 M135.108 20.229 C 130.974 22.085,130.324 30.081,134.053 33.218 C 135.991 34.849,138.804 34.941,140.717 33.437 L 142.068 32.374 141.909 34.296 C 141.666 37.236,139.712 38.166,137.018 36.625 C 134.984 35.461,132.000 35.104,132.000 36.025 C 132.000 39.649,138.046 41.748,142.784 39.768 C 145.530 38.621,146.000 36.865,146.000 27.766 L 146.000 20.000 144.000 20.000 C 142.472 20.000,142.000 20.195,142.000 20.827 C 142.000 21.590,141.926 21.588,141.062 20.806 C 139.750 19.618,137.050 19.357,135.108 20.229 M152.031 20.414 C 147.280 22.962,147.287 31.690,152.042 34.124 C 155.303 35.794,159.833 34.740,161.260 31.981 C 162.366 29.842,159.036 29.027,157.250 31.000 C 156.018 32.362,154.774 32.256,153.536 30.683 C 151.932 28.643,152.176 28.500,157.250 28.500 L 162.000 28.500 161.999 26.625 C 161.997 21.187,156.720 17.899,152.031 20.414 M169.867 20.497 C 168.746 21.379,168.500 21.431,168.500 20.786 C 168.500 20.221,168.008 20.000,166.750 20.000 L 165.000 20.000 165.000 27.250 L 165.000 34.500 166.953 34.500 L 168.906 34.500 169.078 29.459 C 169.265 23.975,169.920 22.710,172.268 23.299 C 173.257 23.547,175.034 20.867,174.341 20.174 C 173.538 19.372,171.072 19.550,169.867 20.497 M45.090 25.988 C 45.382 34.179,47.815 36.680,52.995 34.117 C 54.548 33.349,55.000 33.280,55.000 33.813 C 55.000 34.265,55.599 34.500,56.750 34.500 L 58.500 34.500 58.500 27.250 L 58.500 20.000 56.500 20.000 L 54.500 20.000 54.500 24.904 C 54.500 30.059,54.132 31.138,52.178 31.716 C 50.076 32.339,49.500 30.939,49.500 25.214 L 49.500 20.000 47.188 20.000 L 44.877 20.000 45.090 25.988 M72.500 21.808 L 72.500 23.616 75.741 23.410 C 78.973 23.204,78.980 23.207,78.084 24.227 C 72.305 30.803,72.000 31.235,72.000 32.850 L 72.000 34.500 78.500 34.500 L 85.000 34.500 85.000 32.771 L 85.000 31.042 81.281 30.896 L 77.562 30.750 81.030 26.750 C 83.509 23.891,84.499 22.358,84.499 21.375 L 84.500 20.000 78.500 20.000 L 72.500 20.000 72.500 21.808 M104.500 25.933 C 104.500 34.209,106.779 36.698,111.995 34.117 C 113.548 33.349,114.000 33.280,114.000 33.813 C 114.000 34.281,114.637 34.500,116.000 34.500 L 118.000 34.500 118.000 27.250 L 118.000 20.000 115.750 20.000 L 113.500 20.000 113.500 25.222 C 113.500 30.051,113.416 30.502,112.389 31.222 C 109.497 33.247,108.500 31.708,108.500 25.214 L 108.500 20.000 106.500 20.000 L 104.500 20.000 104.500 25.933 M96.070 23.456 C 97.458 24.580,97.775 29.214,96.564 30.673 C 94.524 33.131,91.308 30.830,91.308 26.912 C 91.308 23.098,93.586 21.445,96.070 23.456 M140.773 23.727 C 142.896 25.851,142.273 30.041,139.687 31.024 C 137.041 32.030,135.060 28.885,136.060 25.264 C 136.853 22.391,138.801 21.756,140.773 23.727 M156.889 23.278 C 159.064 24.802,158.343 26.000,155.250 26.000 C 152.187 26.000,151.893 25.561,153.727 23.727 C 155.170 22.285,155.420 22.249,156.889 23.278 M348.000 26.984 C 357.557 28.911,357.650 29.006,350.840 29.886 C 347.920 30.264,346.622 30.680,345.715 31.533 C 344.337 32.827,343.982 31.901,345.299 30.446 C 346.381 29.250,345.788 28.500,343.761 28.500 C 341.298 28.500,340.500 28.045,340.500 26.638 C 340.500 25.590,340.685 25.428,341.625 25.655 C 342.244 25.804,345.113 26.402,348.000 26.984 M368.500 34.961 C 371.377 36.262,374.664 36.267,382.000 34.983 C 390.088 33.568,393.861 34.423,396.868 38.354 L 398.095 39.957 396.673 40.258 C 393.096 41.016,392.735 42.677,395.042 47.756 C 396.968 51.995,397.162 54.561,395.668 56.054 L 394.603 57.119 392.177 55.785 C 389.186 54.140,388.504 53.610,387.189 51.904 L 386.152 50.558 383.972 52.779 C 382.773 54.000,381.521 55.000,381.190 55.000 C 380.233 55.000,378.500 50.882,378.500 48.607 L 378.500 46.530 376.681 47.764 C 370.140 52.203,360.924 48.870,363.978 43.171 C 365.256 40.787,365.260 39.455,364.000 35.870 C 362.426 31.391,362.600 30.417,364.625 32.374 C 365.519 33.237,367.262 34.401,368.500 34.961 M329.149 43.483 C 328.896 44.452,328.605 44.605,325.875 45.213 C 325.119 45.381,324.500 45.745,324.500 46.022 C 324.500 47.381,327.246 47.581,331.176 46.508 C 335.826 45.239,336.061 45.352,334.298 48.017 C 331.143 52.785,324.646 54.838,318.375 53.048 C 315.608 52.258,315.399 51.508,317.250 49.000 C 318.523 47.274,318.903 45.500,318.000 45.500 C 315.946 45.500,318.174 44.508,320.875 44.220 C 322.731 44.022,325.150 43.576,326.250 43.230 C 329.093 42.333,329.442 42.364,329.149 43.483 M141.414 48.043 C 140.102 48.548,139.000 50.616,139.000 52.575 C 139.000 53.167,138.640 53.500,138.000 53.500 C 137.222 53.500,137.000 53.833,137.000 55.000 C 137.000 56.167,137.222 56.500,138.000 56.500 C 138.942 56.500,139.000 56.833,139.000 62.250 L 139.000 68.000 141.000 68.000 L 143.000 68.000 143.000 62.250 L 143.000 56.500 144.500 56.500 C 145.833 56.500,146.000 56.333,146.000 55.000 C 146.000 53.667,145.833 53.500,144.500 53.500 C 143.675 53.500,143.000 53.293,143.000 53.041 C 143.000 51.745,143.730 51.000,144.999 51.000 C 146.293 51.000,147.606 48.939,146.816 48.149 C 146.299 47.632,142.665 47.561,141.414 48.043 M150.000 49.250 C 150.000 50.917,150.083 51.000,151.750 51.000 C 153.417 51.000,153.500 50.917,153.500 49.250 C 153.500 47.583,153.417 47.500,151.750 47.500 C 150.083 47.500,150.000 47.583,150.000 49.250 M156.000 49.218 C 156.000 50.927,156.073 51.000,157.782 51.000 C 159.491 51.000,159.557 50.934,159.407 49.375 C 159.154 46.752,156.000 46.607,156.000 49.218 M18.500 49.731 L 18.500 51.462 22.966 51.606 L 27.432 51.750 22.216 58.211 C 17.934 63.515,17.000 64.970,17.000 66.336 L 17.000 68.000 25.250 68.000 L 33.500 68.000 33.500 66.250 L 33.500 64.500 27.991 64.500 L 22.483 64.500 27.991 57.716 C 32.208 52.523,33.500 50.588,33.500 49.466 L 33.500 48.000 26.000 48.000 L 18.500 48.000 18.500 49.731 M70.625 49.558 C 69.404 50.339,69.000 50.959,69.000 52.049 C 69.000 53.167,68.770 53.500,68.000 53.500 C 67.215 53.500,67.000 53.833,67.000 55.047 C 67.000 56.173,67.272 56.665,68.000 56.855 C 68.910 57.093,69.000 57.537,69.000 61.808 C 69.000 67.802,71.686 70.428,75.404 68.070 C 76.532 67.355,75.605 65.000,74.196 65.000 C 73.034 65.000,73.000 64.885,73.000 61.000 C 73.000 57.067,73.021 57.000,74.250 57.000 C 75.345 57.000,75.500 56.783,75.500 55.250 C 75.500 53.717,75.345 53.500,74.250 53.500 C 73.083 53.500,73.000 53.333,73.000 51.000 C 73.000 48.180,72.885 48.110,70.625 49.558 M39.010 53.876 C 32.306 57.244,34.329 68.491,41.641 68.498 C 44.360 68.501,46.810 67.317,47.718 65.562 L 48.502 64.046 46.720 63.711 C 45.280 63.441,44.749 63.580,43.950 64.439 C 42.710 65.770,41.292 65.792,40.000 64.500 C 37.939 62.439,38.597 62.000,43.750 62.000 L 48.500 62.000 48.500 60.201 C 48.500 54.938,43.513 51.614,39.010 53.876 M57.356 53.946 C 55.890 54.693,55.500 54.746,55.500 54.196 C 55.500 53.717,54.876 53.500,53.500 53.500 L 51.500 53.500 51.500 60.750 L 51.500 68.000 53.500 68.000 L 55.500 68.000 55.507 63.625 C 55.516 58.457,56.150 56.821,58.237 56.582 C 60.513 56.321,61.000 57.468,61.000 63.096 L 61.000 68.000 63.000 68.000 L 65.000 68.000 65.000 62.533 C 65.000 56.014,64.591 54.696,62.269 53.726 C 60.028 52.789,59.586 52.809,57.356 53.946 M82.817 54.036 C 81.725 54.895,81.500 54.938,81.500 54.286 C 81.500 53.721,81.008 53.500,79.750 53.500 L 78.000 53.500 78.000 60.750 L 78.000 68.000 80.000 68.000 L 82.000 68.000 82.000 63.467 C 82.000 58.009,82.424 57.000,84.719 57.000 C 86.139 57.000,86.484 56.766,86.924 55.503 C 87.779 53.050,85.229 52.139,82.817 54.036 M111.375 53.921 C 109.905 54.683,109.500 54.742,109.500 54.196 C 109.500 53.717,108.876 53.500,107.500 53.500 L 105.500 53.500 105.500 60.750 L 105.500 68.000 107.750 68.000 L 110.000 68.000 110.000 62.850 C 110.000 57.269,110.309 56.500,112.547 56.500 C 114.312 56.500,114.500 57.128,114.500 63.041 L 114.500 68.000 116.500 68.000 L 118.500 68.000 118.500 63.361 C 118.500 57.978,119.208 56.340,121.423 56.596 L 122.750 56.750 122.891 62.375 L 123.033 68.000 125.266 68.000 L 127.500 68.000 127.472 62.875 C 127.424 54.135,125.104 51.360,119.968 53.901 C 118.055 54.847,117.704 54.888,116.992 54.243 C 115.609 52.991,113.413 52.865,111.375 53.921 M169.867 53.997 C 168.746 54.879,168.500 54.931,168.500 54.286 C 168.500 53.721,168.008 53.500,166.750 53.500 L 165.000 53.500 165.000 60.750 L 165.000 68.000 167.000 68.000 L 169.000 68.000 169.000 63.783 C 169.000 58.082,169.503 56.833,171.697 57.089 C 173.247 57.270,175.327 54.661,174.384 53.718 C 173.543 52.876,171.100 53.027,169.867 53.997 M89.000 59.226 C 89.000 67.932,91.634 70.701,96.875 67.505 C 98.201 66.697,98.500 66.651,98.500 67.257 C 98.500 67.790,99.064 68.000,100.500 68.000 L 102.500 68.000 102.500 60.750 L 102.500 53.500 100.250 53.500 L 98.000 53.500 98.000 58.722 C 98.000 63.551,97.916 64.002,96.889 64.722 C 93.997 66.747,93.000 65.208,93.000 58.714 L 93.000 53.500 91.000 53.500 L 89.000 53.500 89.000 59.226 M148.000 59.538 L 148.000 65.577 149.524 67.101 C 151.274 68.851,154.661 68.914,156.520 67.232 C 157.408 66.428,157.500 66.423,157.500 67.173 C 157.500 67.805,157.972 68.000,159.500 68.000 L 161.500 68.000 161.500 60.750 L 161.500 53.500 159.567 53.500 L 157.634 53.500 157.393 58.502 C 157.140 63.762,156.411 65.500,154.458 65.500 C 152.472 65.500,152.000 64.196,152.000 58.714 L 152.000 53.500 150.000 53.500 L 148.000 53.500 148.000 59.538 M43.982 57.467 C 44.911 59.202,44.584 59.500,41.750 59.500 C 38.785 59.500,38.588 59.311,39.778 57.611 C 40.777 56.185,43.251 56.100,43.982 57.467 M420.512 57.292 C 422.443 57.666,425.000 59.804,425.000 61.044 C 425.000 62.215,425.391 62.246,420.963 60.723 C 418.921 60.021,415.731 59.313,413.875 59.151 C 410.231 58.831,409.718 58.429,411.875 57.581 C 414.414 56.583,416.485 56.514,420.512 57.292 M408.036 68.568 C 408.468 69.374,408.458 70.342,407.996 72.521 C 407.267 75.953,407.568 76.674,409.547 76.240 C 412.660 75.556,408.794 79.319,404.750 80.910 C 399.394 83.016,397.369 82.510,396.795 78.922 C 396.607 77.742,396.118 76.407,395.710 75.956 C 394.829 74.982,395.223 74.663,400.758 71.866 C 402.678 70.895,404.795 69.516,405.462 68.801 C 406.933 67.222,407.299 67.189,408.036 68.568 M421.912 71.625 L 426.250 75.750 426.385 74.000 C 426.643 70.656,426.991 69.953,428.752 69.217 C 431.510 68.065,436.672 68.425,437.202 69.806 C 437.817 71.407,436.954 72.000,434.008 72.000 C 430.561 72.000,429.522 72.803,430.420 74.773 L 430.986 76.017 433.473 74.717 C 436.306 73.235,436.754 73.343,437.216 75.619 C 438.246 80.681,437.288 81.496,433.367 78.893 C 430.684 77.112,429.674 76.817,426.750 76.965 L 425.250 77.041 427.000 78.543 C 431.469 82.380,438.215 84.490,441.091 82.951 C 442.366 82.269,443.711 83.367,443.208 84.680 C 442.494 86.540,437.051 87.851,435.691 86.491 C 435.150 85.950,430.498 94.995,430.499 96.584 C 430.501 98.205,429.879 99.000,428.611 99.000 C 426.020 99.000,424.637 96.048,426.018 93.467 C 426.682 92.226,424.973 92.170,419.331 93.250 C 412.092 94.635,408.809 94.015,407.231 90.964 L 406.446 89.444 408.220 89.777 C 410.720 90.246,412.227 89.744,414.513 87.679 C 417.467 85.010,416.785 83.372,413.500 85.250 C 411.887 86.172,408.500 86.237,408.500 85.346 C 408.500 83.441,409.765 82.804,412.194 83.484 C 414.965 84.260,415.121 84.166,414.524 82.085 C 414.219 81.020,414.280 79.360,414.708 77.118 L 415.350 73.750 416.300 75.372 C 417.356 77.175,418.429 77.397,420.268 76.192 C 421.973 75.075,421.839 74.546,419.269 72.250 C 417.088 70.302,415.739 67.500,416.982 67.500 C 417.307 67.500,419.526 69.356,421.912 71.625 M19.000 91.763 L 19.000 102.026 26.625 101.888 L 34.250 101.750 34.250 100.000 L 34.250 98.250 28.625 98.109 L 23.000 97.967 23.000 95.501 L 23.000 93.035 28.125 92.892 L 33.250 92.750 33.407 91.125 L 33.563 89.500 28.282 89.500 L 23.000 89.500 23.000 87.250 L 23.000 85.000 28.500 85.000 L 34.000 85.000 34.000 83.250 L 34.000 81.500 26.500 81.500 L 19.000 81.500 19.000 91.763 M54.706 82.183 C 53.949 84.156,54.678 85.250,56.750 85.250 C 58.702 85.250,58.750 85.208,58.750 83.500 C 58.750 81.547,55.373 80.447,54.706 82.183 M62.500 91.780 L 62.500 102.060 64.375 101.905 L 66.250 101.750 66.400 99.166 C 66.542 96.712,67.878 94.404,68.348 95.800 C 69.396 98.910,71.859 101.759,73.627 101.905 C 76.043 102.105,76.016 101.742,73.250 96.947 C 70.527 92.227,70.524 92.915,73.289 89.679 L 75.577 87.000 73.191 87.000 C 70.976 87.000,70.651 87.171,68.674 89.375 L 66.545 91.750 66.522 86.625 L 66.500 81.500 64.500 81.500 L 62.500 81.500 62.500 91.780 M121.595 83.375 C 121.742 85.148,121.852 85.258,123.625 85.405 L 125.500 85.560 125.500 83.530 L 125.500 81.500 123.470 81.500 L 121.440 81.500 121.595 83.375 M44.343 87.045 C 43.569 87.257,42.639 87.677,42.276 87.978 C 41.784 88.387,41.543 88.332,41.324 87.763 C 41.138 87.278,40.387 87.000,39.266 87.000 L 37.500 87.000 37.500 97.250 L 37.500 107.500 39.500 107.500 L 41.500 107.500 41.500 103.942 L 41.500 100.385 42.732 101.192 C 45.223 102.825,49.335 101.751,50.681 99.117 C 53.862 92.892,49.981 85.501,44.343 87.045 M100.383 87.222 C 99.589 87.635,98.896 87.737,98.729 87.466 C 98.571 87.210,97.667 87.000,96.720 87.000 L 95.000 87.000 95.000 94.500 L 95.000 102.000 97.000 102.000 L 99.000 102.000 99.007 97.625 C 99.016 92.248,99.646 90.748,101.890 90.754 C 103.498 90.759,105.123 88.373,104.132 87.463 C 103.257 86.660,101.664 86.558,100.383 87.222 M109.821 87.034 C 102.497 89.127,103.604 101.262,111.176 101.890 C 114.555 102.170,119.963 99.127,118.443 97.801 C 117.461 96.945,114.500 97.066,114.009 97.982 C 113.308 99.294,111.303 99.303,110.000 98.000 C 107.939 95.939,108.597 95.500,113.750 95.500 L 118.500 95.500 118.498 93.625 C 118.494 89.148,114.101 85.811,109.821 87.034 M132.508 87.012 C 126.538 88.416,127.504 94.184,134.007 95.965 C 136.547 96.660,137.250 97.058,137.250 97.801 C 137.250 99.281,133.910 99.399,132.576 97.966 C 131.120 96.403,127.830 96.943,128.448 98.643 C 129.731 102.174,137.435 103.293,140.355 100.372 C 143.045 97.682,141.769 93.991,137.796 92.970 C 133.683 91.912,132.500 91.408,132.500 90.711 C 132.500 89.511,136.317 89.559,137.202 90.770 C 137.844 91.647,141.000 91.256,141.000 90.299 C 141.000 88.626,135.908 85.757,134.350 86.551 C 134.295 86.579,133.466 86.787,132.508 87.012 M151.343 87.013 C 150.569 87.243,149.613 87.699,149.218 88.027 C 148.642 88.504,148.500 88.456,148.500 87.781 C 148.500 87.114,148.110 86.972,146.625 87.095 L 144.750 87.250 144.750 94.500 L 144.750 101.750 146.552 101.901 L 148.354 102.052 148.623 96.766 C 148.907 91.213,149.371 90.000,151.211 90.000 C 153.187 90.000,153.500 90.902,153.500 96.600 L 153.500 102.000 155.500 102.000 L 157.500 102.000 157.500 97.111 C 157.500 91.463,158.178 89.837,160.423 90.096 L 161.750 90.250 162.000 96.000 L 162.250 101.750 164.250 101.750 L 166.250 101.750 166.215 95.601 C 166.168 87.400,163.282 84.499,158.372 87.716 C 157.213 88.475,156.943 88.489,155.910 87.837 C 154.226 86.773,152.937 86.541,151.343 87.013 M190.065 87.008 C 184.120 88.385,185.101 94.484,191.509 95.988 C 194.874 96.777,195.737 97.362,194.945 98.316 C 194.085 99.352,191.468 99.145,190.185 97.939 C 189.284 97.092,188.697 96.946,187.277 97.212 L 185.498 97.546 186.282 99.062 C 187.918 102.225,195.122 103.106,197.760 100.466 C 200.935 97.289,199.185 93.632,193.968 92.542 C 190.496 91.816,189.541 91.259,190.363 90.437 C 191.252 89.548,194.040 89.695,194.752 90.668 C 195.659 91.909,198.610 91.253,198.401 89.857 C 198.070 87.649,193.719 86.162,190.065 87.008 M54.731 87.620 C 54.587 87.994,54.533 91.327,54.610 95.025 L 54.750 101.750 56.750 101.750 L 58.750 101.750 58.750 94.500 L 58.750 87.250 56.871 87.095 C 55.631 86.992,54.903 87.171,54.731 87.620 M78.000 93.038 C 78.000 101.261,81.474 104.668,86.126 101.008 C 87.387 100.017,87.388 100.017,87.656 101.042 C 87.871 101.864,88.257 102.037,89.587 101.909 L 91.250 101.750 91.388 94.375 L 91.527 87.000 89.513 87.000 L 87.500 87.000 87.500 90.878 C 87.500 96.939,86.658 98.975,84.143 98.992 C 82.454 99.004,82.000 97.530,82.000 92.033 L 82.000 87.000 80.000 87.000 L 78.000 87.000 78.000 93.038 M121.612 94.375 L 121.750 101.750 123.625 101.905 L 125.500 102.060 125.500 94.530 L 125.500 87.000 123.487 87.000 L 121.473 87.000 121.612 94.375 M170.000 93.243 C 170.000 99.348,170.040 99.586,171.287 100.833 C 172.819 102.365,176.768 102.317,178.505 100.745 C 179.469 99.873,179.500 99.879,179.500 100.923 C 179.500 101.821,179.791 102.000,181.250 102.000 L 183.000 102.000 183.000 94.500 L 183.000 87.000 181.000 87.000 L 179.000 87.000 179.000 92.173 C 179.000 97.725,178.467 99.000,176.147 99.000 C 174.423 99.000,174.043 97.898,173.894 92.471 L 173.750 87.250 171.875 87.095 L 170.000 86.940 170.000 93.243 M46.586 90.827 C 47.920 92.035,47.865 96.635,46.500 98.000 C 45.180 99.320,44.216 99.262,42.727 97.773 C 39.327 94.372,43.065 87.642,46.586 90.827 M113.714 90.786 C 115.271 92.343,114.689 93.000,111.750 93.000 C 108.785 93.000,108.588 92.811,109.778 91.111 C 110.686 89.815,112.587 89.658,113.714 90.786 M442.521 92.557 C 450.238 95.877,452.654 104.312,449.920 118.395 L 448.825 124.041 447.287 123.661 C 445.408 123.196,444.050 123.207,438.144 123.731 C 432.617 124.222,431.357 123.682,430.487 120.451 C 429.752 117.723,430.035 117.598,432.800 119.429 C 435.249 121.052,438.020 121.856,439.023 121.236 C 439.412 120.995,439.094 120.544,438.086 119.906 C 436.252 118.745,434.695 115.659,434.221 112.250 C 433.777 109.052,433.229 108.370,431.420 108.767 L 430.000 109.079 430.000 106.072 C 430.000 102.314,430.462 101.100,433.337 97.294 C 434.602 95.620,435.958 93.493,436.349 92.569 C 437.168 90.633,438.045 90.631,442.521 92.557 M202.000 94.521 L 202.000 96.542 205.875 96.396 L 209.750 96.250 209.905 94.375 L 210.060 92.500 206.030 92.500 L 202.000 92.500 202.000 94.521 M327.400 95.705 C 329.631 96.871,332.500 100.393,332.500 101.967 C 332.500 102.293,331.149 102.500,329.018 102.500 C 325.268 102.500,324.504 101.977,324.497 99.408 C 324.495 98.771,324.158 97.606,323.747 96.818 C 323.336 96.030,323.000 95.299,323.000 95.193 C 323.000 94.703,326.193 95.075,327.400 95.705 M349.094 98.567 C 345.760 99.528,347.018 101.719,351.000 101.887 C 353.576 101.996,354.432 102.241,355.125 103.068 C 356.430 104.623,356.302 105.697,354.901 104.947 C 352.100 103.448,345.439 104.831,344.732 107.058 C 344.326 108.334,348.142 113.687,352.595 118.086 C 360.473 125.872,369.238 126.883,375.068 120.678 C 376.888 118.740,373.675 117.503,366.807 117.497 C 361.524 117.492,358.000 115.905,358.000 113.532 C 358.000 112.805,358.405 112.524,359.625 112.407 C 361.363 112.239,361.399 112.113,360.703 108.583 C 360.448 107.291,360.628 106.572,361.505 105.387 C 362.127 104.545,362.375 104.019,362.056 104.216 C 361.215 104.735,358.500 104.031,358.500 103.294 C 358.500 102.949,359.450 101.904,360.611 100.971 L 362.722 99.274 360.736 98.676 C 358.366 97.961,351.421 97.897,349.094 98.567 M20.500 116.000 C 19.889 116.611,19.500 117.667,19.500 118.715 C 19.500 120.113,19.292 120.460,18.375 120.590 C 17.494 120.715,17.250 121.075,17.250 122.250 C 17.250 123.425,17.494 123.785,18.375 123.910 C 19.467 124.065,19.500 124.239,19.500 129.785 L 19.500 135.500 21.500 135.500 L 23.500 135.500 23.500 129.783 L 23.500 124.066 24.875 123.908 C 26.943 123.670,26.917 120.827,24.845 120.589 C 22.707 120.344,23.139 118.309,25.375 118.093 C 26.804 117.956,27.000 117.759,27.000 116.468 C 27.000 114.558,22.282 114.218,20.500 116.000 M87.500 125.220 L 87.500 135.500 89.500 135.500 L 91.500 135.500 91.500 130.611 C 91.500 125.216,92.156 123.500,94.217 123.500 C 96.086 123.500,96.455 124.506,96.606 130.029 L 96.750 135.250 98.750 135.250 L 100.750 135.250 100.906 131.250 C 101.267 121.969,97.727 117.695,92.634 121.262 C 91.552 122.020,91.545 122.006,91.398 118.637 L 91.250 115.250 89.375 115.095 L 87.500 114.940 87.500 125.220 M471.494 116.125 C 474.349 117.581,474.467 118.172,472.293 120.096 C 471.209 121.057,470.500 122.142,470.500 122.842 C 470.500 124.252,470.599 124.251,466.452 122.915 C 462.431 121.620,460.982 122.173,459.567 125.545 C 458.593 127.863,458.360 127.918,457.110 126.125 C 452.498 119.506,463.342 111.967,471.494 116.125 M31.031 121.414 C 26.529 123.828,26.264 131.800,30.595 134.516 C 32.976 136.009,37.908 135.721,39.798 133.977 C 46.594 127.709,39.159 117.054,31.031 121.414 M45.219 121.150 C 45.082 121.508,45.033 124.827,45.110 128.525 L 45.250 135.250 47.049 135.401 L 48.849 135.551 49.189 130.716 C 49.604 124.813,50.040 123.819,52.087 124.119 C 53.658 124.350,54.879 122.708,54.286 121.164 C 53.932 120.241,50.766 120.327,49.974 121.282 C 49.386 121.990,49.284 121.990,48.888 121.282 C 48.358 120.335,45.570 120.235,45.219 121.150 M56.962 121.962 C 53.896 125.027,55.392 128.050,60.704 129.523 C 64.619 130.608,64.731 130.676,64.327 131.728 C 63.860 132.947,60.237 132.757,59.333 131.467 C 58.572 130.380,55.000 130.495,55.000 131.606 C 55.000 135.289,64.563 137.021,67.304 133.835 C 69.823 130.906,68.497 127.553,64.401 126.499 C 60.435 125.479,59.751 125.171,59.588 124.334 C 59.375 123.231,62.806 123.169,64.004 124.254 C 64.985 125.142,68.000 124.748,68.000 123.732 C 68.000 120.537,59.715 119.208,56.962 121.962 M74.095 121.513 C 70.280 123.839,69.919 131.072,73.459 134.228 C 75.187 135.768,80.326 135.932,82.135 134.504 C 83.954 133.069,85.294 130.563,84.392 130.282 C 82.060 129.554,81.073 129.691,80.562 130.814 C 79.302 133.578,75.831 132.523,75.205 129.185 C 74.367 124.719,77.479 121.864,80.149 124.649 C 81.334 125.885,83.962 125.867,84.378 124.619 C 85.377 121.614,77.722 119.301,74.095 121.513 M104.585 127.013 C 104.794 135.357,107.062 137.562,112.525 134.737 C 113.859 134.047,114.000 134.050,114.000 134.767 C 114.000 135.378,114.431 135.525,115.875 135.405 L 117.750 135.250 117.750 128.000 L 117.750 120.750 115.750 120.750 L 113.750 120.750 113.500 126.240 C 113.251 131.714,113.246 131.730,111.849 132.220 C 109.240 133.135,108.780 132.308,108.500 126.197 L 108.250 120.750 106.335 120.592 L 104.419 120.435 104.585 127.013 M121.833 120.833 C 121.650 121.017,121.500 124.392,121.500 128.333 L 121.500 135.500 123.500 135.500 L 125.500 135.500 125.500 131.033 C 125.500 125.753,125.994 124.146,127.752 123.705 C 130.309 123.063,131.000 124.473,131.000 130.327 L 131.000 135.500 133.000 135.500 L 135.000 135.500 135.000 129.774 C 135.000 121.193,132.429 118.442,127.024 121.238 C 125.767 121.888,125.564 121.888,125.314 121.238 C 125.031 120.498,122.466 120.201,121.833 120.833 M140.941 121.252 C 136.727 123.541,137.108 132.567,141.515 134.885 C 143.030 135.682,145.799 135.337,147.062 134.194 C 147.962 133.379,148.000 133.415,148.000 135.073 C 148.000 137.825,145.130 139.125,143.039 137.318 C 141.511 135.997,138.500 135.899,138.500 137.170 C 138.500 141.150,146.716 142.914,150.421 139.731 L 151.750 138.589 151.907 129.544 L 152.063 120.500 150.282 120.500 C 149.031 120.500,148.500 120.724,148.500 121.250 C 148.500 122.183,148.028 122.179,146.779 121.234 C 145.559 120.311,142.656 120.320,140.941 121.252 M36.139 123.958 C 39.757 125.333,38.689 132.500,34.866 132.500 C 30.396 132.500,30.377 125.063,34.842 123.532 C 34.893 123.514,35.477 123.706,36.139 123.958 M147.222 124.611 C 148.263 126.098,148.234 129.913,147.173 131.086 C 145.016 133.469,142.000 131.459,142.000 127.639 C 142.000 124.007,145.413 122.029,147.222 124.611 M52.750 161.243 C 34.978 167.070,33.758 167.261,27.201 165.246 C 25.530 164.732,17.395 177.840,13.823 186.802 C 7.068 203.746,10.975 224.819,21.797 229.819 C 39.034 237.783,58.265 295.125,51.228 317.571 C 48.588 325.989,48.791 327.519,52.958 330.623 C 57.006 333.640,57.694 334.609,57.340 336.793 L 57.063 338.500 59.276 338.500 C 63.239 338.500,72.625 342.871,70.000 343.494 C 69.221 343.679,68.691 344.200,68.593 344.876 C 68.350 346.551,71.566 353.386,72.750 353.711 C 75.221 354.391,82.020 353.929,87.250 352.726 C 100.137 349.762,99.681 349.814,104.498 350.750 C 113.538 352.506,111.386 350.480,102.104 348.496 C 95.988 347.189,90.307 347.271,87.357 348.708 C 86.316 349.216,85.408 349.545,85.340 349.440 C 84.880 348.734,83.956 345.377,84.164 345.169 C 85.221 344.113,92.048 343.715,96.000 344.478 C 98.787 345.017,98.831 344.971,97.284 343.132 C 95.709 341.260,93.439 340.642,85.869 340.022 C 79.640 339.513,76.545 338.539,74.757 336.528 L 73.764 335.410 75.674 335.769 C 77.648 336.139,85.000 335.140,85.000 334.501 C 85.000 333.528,81.308 329.508,78.697 327.638 C 77.076 326.478,74.081 324.341,72.040 322.889 C 68.212 320.166,65.861 317.630,65.246 315.563 L 64.893 314.376 71.072 314.640 C 75.908 314.847,78.879 315.310,84.750 316.775 C 96.494 319.703,104.338 319.270,107.747 315.504 C 109.698 313.348,101.257 309.388,87.500 306.006 C 81.418 304.511,81.574 304.605,83.273 303.450 C 89.992 298.886,97.575 296.575,99.503 298.503 L 100.506 299.506 105.250 297.125 L 109.994 294.744 106.122 294.706 C 101.746 294.663,99.496 293.787,98.187 291.615 C 97.735 290.864,96.743 289.319,95.983 288.182 L 94.601 286.114 100.175 285.796 C 199.520 280.132,242.529 279.943,272.500 285.039 C 291.974 288.351,299.784 294.043,300.401 305.375 L 300.625 309.500 302.535 309.500 C 303.799 309.500,304.880 309.880,305.735 310.625 L 307.025 311.750 306.514 317.500 C 306.232 320.663,305.946 323.694,305.876 324.237 C 305.731 325.374,308.094 326.413,311.000 326.489 C 314.872 326.591,315.249 327.219,315.260 333.586 C 315.268 338.308,315.469 339.790,316.468 342.500 C 317.898 346.381,317.985 349.078,316.763 351.652 C 315.297 354.741,316.850 356.566,326.351 362.918 C 331.528 366.379,333.518 368.550,334.255 371.545 C 334.687 373.300,335.035 373.691,336.656 374.248 C 345.286 377.215,353.204 393.647,349.802 401.530 C 349.500 402.230,350.150 402.221,356.108 401.437 C 366.316 400.093,373.098 400.169,372.980 401.625 C 372.683 405.297,373.313 405.809,376.823 404.753 C 379.483 403.953,379.998 404.099,380.005 405.655 C 380.022 409.408,383.841 413.983,388.213 415.487 C 391.095 416.479,402.250 417.916,402.800 417.367 C 403.679 416.487,399.478 413.000,397.539 413.000 C 396.119 413.000,391.380 410.775,390.794 409.833 C 387.895 405.179,390.653 404.559,394.500 409.000 C 397.466 412.424,398.102 412.634,398.772 410.416 C 399.565 407.788,401.278 406.931,406.313 406.642 C 410.759 406.387,413.000 405.601,413.000 404.297 C 413.000 402.736,407.941 402.576,403.420 403.994 C 399.256 405.299,397.845 405.255,396.153 403.766 C 394.764 402.544,394.762 402.531,395.908 402.516 C 398.087 402.486,399.000 401.611,399.000 399.551 L 399.000 397.636 403.625 397.393 C 409.569 397.081,412.889 395.606,416.470 391.688 C 419.688 388.167,419.664 387.619,416.375 389.463 C 412.050 391.887,408.806 392.941,400.834 394.513 C 391.985 396.259,389.190 397.091,385.692 399.021 C 382.929 400.546,382.000 400.331,382.000 398.168 C 382.000 396.805,382.993 396.212,386.042 395.755 C 390.642 395.065,390.618 393.812,385.996 393.328 C 377.905 392.483,369.649 389.246,361.513 383.731 C 353.742 378.463,353.626 378.343,357.500 379.564 C 361.995 380.981,368.869 381.090,372.222 379.797 C 375.282 378.616,375.227 378.591,365.101 376.488 C 350.225 373.400,345.320 371.097,341.910 365.599 C 340.525 363.365,340.577 363.349,347.327 364.009 C 358.789 365.129,361.801 361.870,351.043 359.987 C 345.704 359.053,343.000 357.592,343.000 355.642 C 343.000 355.408,345.081 355.401,347.625 355.625 C 354.579 356.237,366.350 354.957,367.257 353.489 C 368.128 352.079,363.054 350.413,360.312 351.211 C 356.302 352.376,355.500 352.277,355.500 350.618 C 355.500 347.688,344.362 340.841,340.005 341.092 L 337.260 341.250 335.623 338.000 C 334.722 336.212,333.086 331.938,331.986 328.500 C 328.677 318.154,327.663 316.023,326.750 317.500 C 325.756 319.109,324.152 317.968,323.535 315.212 C 322.440 310.318,318.800 303.989,311.458 294.212 C 302.427 282.186,299.000 275.334,299.000 269.303 C 299.000 267.599,298.910 267.500,297.361 267.500 C 295.037 267.500,293.563 266.267,292.198 263.181 C 290.801 260.022,290.576 259.962,288.588 262.226 L 287.073 263.952 286.536 261.451 C 285.559 256.894,286.349 255.049,288.400 257.100 C 288.867 257.567,289.000 257.404,289.000 256.368 C 289.000 254.756,287.782 254.003,285.158 253.992 C 282.308 253.981,281.697 253.427,282.755 251.813 L 283.615 250.500 282.058 250.500 L 280.500 250.500 280.492 253.375 C 280.483 256.864,280.022 257.746,278.429 257.322 C 275.955 256.665,275.723 256.261,276.389 253.770 C 277.418 249.923,277.253 248.997,275.620 249.465 C 273.776 249.994,272.563 249.465,270.668 247.304 C 269.797 246.312,268.647 245.500,268.112 245.500 C 267.323 245.500,267.086 245.047,266.856 243.106 C 266.700 241.790,265.794 238.921,264.843 236.731 C 263.892 234.542,262.818 231.906,262.456 230.873 C 261.900 229.289,261.639 229.055,260.774 229.373 C 253.575 232.021,242.540 224.740,246.189 219.749 C 246.848 218.847,247.188 218.941,254.223 221.954 C 262.337 225.430,266.687 226.332,267.958 224.800 C 269.906 222.454,260.962 217.157,245.992 211.790 C 227.573 205.188,216.701 199.797,219.097 198.456 C 225.192 195.045,243.591 197.076,262.500 203.247 C 272.818 206.615,279.587 208.579,279.877 208.290 C 280.434 207.732,276.969 202.459,274.255 199.734 C 270.624 196.091,267.146 193.754,259.333 189.707 L 253.415 186.643 255.333 185.058 C 264.295 177.652,270.267 179.537,285.978 194.728 C 295.277 203.720,298.735 206.163,303.031 206.774 L 305.250 207.090 303.437 205.420 C 300.877 203.063,299.607 201.013,298.299 197.128 L 297.161 193.750 293.812 193.458 C 290.607 193.180,288.097 192.040,287.635 190.655 C 287.174 189.271,296.583 192.116,300.471 194.536 C 303.266 196.276,303.161 196.789,301.439 189.825 C 299.899 183.600,299.051 181.480,297.354 179.625 C 295.773 177.895,295.553 178.202,295.396 182.370 C 295.238 186.561,294.258 187.812,293.109 185.290 C 292.429 183.796,289.903 182.437,285.540 181.218 C 278.750 179.320,276.706 175.503,282.685 175.887 C 287.414 176.190,290.845 175.128,292.977 172.700 C 294.601 170.851,294.950 169.141,293.795 168.698 C 293.078 168.423,278.600 172.148,273.389 173.948 L 270.528 174.937 270.832 172.718 C 271.124 170.589,271.084 170.500,269.846 170.500 C 269.080 170.500,268.241 170.049,267.778 169.389 L 267.000 168.277 267.008 169.514 C 267.012 170.194,267.224 171.080,267.479 171.483 C 268.138 172.525,267.169 173.500,265.474 173.500 C 263.590 173.500,262.657 172.449,262.265 169.885 C 261.544 165.164,260.715 164.190,259.393 166.513 C 258.536 168.018,258.532 168.019,254.393 167.885 L 250.250 167.750 250.095 169.095 C 249.792 171.716,251.393 172.546,258.141 173.267 C 264.512 173.948,264.946 176.760,258.872 178.004 C 254.983 178.800,252.575 179.755,251.201 181.046 L 250.139 182.044 249.892 177.330 C 249.500 169.838,245.945 164.031,244.416 168.386 C 241.427 176.905,245.234 186.027,254.500 192.545 C 255.738 193.416,256.975 194.342,257.250 194.604 C 257.567 194.905,253.166 195.002,245.250 194.868 C 238.375 194.751,210.174 194.889,182.581 195.175 C 113.386 195.890,88.578 195.120,55.250 191.225 C 45.796 190.120,46.275 190.289,47.355 188.443 C 52.162 180.237,62.909 177.515,82.750 179.479 C 89.846 180.182,99.662 180.116,98.000 179.376 C 92.175 176.786,90.947 175.956,86.540 171.627 C 81.128 166.311,81.500 166.537,81.500 168.564 C 81.500 169.655,82.039 170.725,83.280 172.099 C 86.148 175.274,85.649 176.782,81.776 176.645 C 73.945 176.367,69.709 171.255,72.257 165.157 C 73.680 161.750,70.742 162.929,68.767 166.557 C 66.310 171.073,64.020 171.180,62.271 166.862 C 60.289 161.969,56.806 159.913,52.750 161.243 M57.090 164.375 C 60.691 173.127,53.998 183.054,44.939 182.399 C 41.006 182.114,41.015 182.428,44.726 175.177 C 47.376 169.997,48.028 168.265,48.085 166.250 C 48.180 162.890,48.029 163.000,52.542 163.000 C 56.416 163.000,56.540 163.037,57.090 164.375 M423.385 180.782 C 422.483 181.684,424.029 183.866,426.687 185.443 C 428.846 186.724,429.624 187.497,429.839 188.572 C 430.136 190.056,430.384 190.205,431.709 189.697 C 433.727 188.922,431.958 186.071,427.357 182.684 C 424.374 180.489,423.904 180.263,423.385 180.782 M188.500 181.549 C 185.570 181.997,179.551 184.241,180.049 184.699 C 180.159 184.801,184.750 184.687,190.250 184.447 C 227.166 182.831,231.546 182.388,216.000 181.845 C 194.739 181.103,191.631 181.070,188.500 181.549 M35.831 184.467 C 40.605 186.635,44.499 192.651,42.803 195.240 C 41.719 196.893,41.134 196.829,40.102 194.945 C 38.367 191.779,37.825 191.367,35.458 191.414 C 33.386 191.456,33.193 191.348,32.676 189.854 C 32.370 188.972,31.831 187.552,31.478 186.699 C 30.186 183.576,31.916 182.689,35.831 184.467 M431.995 197.125 C 430.192 200.081,430.777 202.611,434.303 207.112 L 436.545 209.973 434.319 212.112 C 432.488 213.870,432.028 214.686,431.727 216.709 C 430.991 221.659,432.430 222.271,444.585 222.179 C 455.538 222.097,455.256 222.189,453.953 219.110 C 452.502 215.681,450.421 214.387,449.751 216.498 C 448.747 219.659,439.258 221.800,436.375 219.517 C 433.852 217.518,434.346 213.915,437.549 210.955 C 439.820 208.856,439.989 208.564,439.094 208.280 C 437.518 207.780,436.626 205.963,435.788 201.546 C 434.586 195.209,433.754 194.239,431.995 197.125 M356.912 218.856 C 355.070 219.136,354.258 220.177,355.244 220.995 C 355.660 221.340,356.000 222.045,356.000 222.561 C 356.000 223.641,356.500 223.703,359.193 222.955 C 360.601 222.564,361.753 222.571,363.379 222.980 C 365.923 223.621,366.226 223.500,365.759 222.029 C 365.153 220.119,360.228 218.353,356.912 218.856 M329.047 223.580 C 328.387 223.825,327.038 223.963,326.049 223.887 C 324.774 223.790,324.290 223.942,324.386 224.409 C 325.529 229.935,325.093 232.841,322.730 235.457 L 320.985 237.388 322.233 237.701 C 324.046 238.156,326.901 240.840,328.086 243.203 C 330.002 247.023,334.579 249.914,332.909 246.250 C 332.480 245.309,332.485 244.681,332.927 243.711 C 333.717 241.977,334.543 242.379,335.386 244.907 C 336.079 246.986,337.700 248.053,338.972 247.268 C 339.762 246.779,339.609 244.378,338.705 243.088 C 337.665 241.603,338.133 240.073,339.325 241.063 C 339.773 241.434,340.670 241.668,341.320 241.583 C 342.931 241.372,342.837 241.849,340.250 247.000 C 337.518 252.441,337.507 252.018,340.375 251.871 L 342.750 251.750 342.622 254.195 C 342.447 257.535,343.049 258.118,346.462 257.915 L 349.236 257.750 349.590 260.220 C 350.408 265.921,357.007 271.040,365.103 272.254 L 367.416 272.601 366.930 270.426 C 366.663 269.229,366.132 267.772,365.751 267.187 C 365.090 266.173,365.152 266.111,367.098 265.850 C 370.316 265.419,371.456 263.383,371.491 258.000 C 371.514 254.506,372.362 252.224,374.259 250.559 L 375.993 249.037 373.872 248.476 C 371.121 247.749,367.806 245.618,365.049 242.804 L 362.848 240.557 364.130 240.236 C 364.949 240.030,366.261 240.290,367.769 240.957 C 371.751 242.719,375.039 241.658,371.229 239.841 C 366.152 237.420,360.388 229.001,365.144 230.955 C 369.337 232.677,369.975 232.391,368.480 229.460 C 367.152 226.859,364.903 225.504,361.904 225.502 L 359.557 225.500 359.404 227.625 C 359.261 229.592,359.076 229.842,356.904 230.989 L 354.559 232.228 354.839 235.489 C 355.145 239.059,355.925 240.750,357.494 241.248 C 359.626 241.925,357.772 242.500,353.458 242.500 C 348.111 242.500,347.441 243.191,348.453 247.663 C 349.202 250.966,349.139 252.762,348.250 253.500 C 347.710 253.948,347.500 253.961,347.500 253.546 C 347.500 253.229,346.375 251.879,345.000 250.547 C 341.896 247.539,341.736 246.072,344.201 243.193 C 347.505 239.332,346.964 237.485,342.625 237.813 C 338.819 238.100,334.768 236.479,336.654 235.424 C 338.088 234.621,337.611 233.391,334.740 230.490 C 333.121 228.853,331.621 226.757,331.113 225.418 C 330.319 223.327,330.147 223.174,329.047 223.580 M477.484 236.911 C 485.585 245.065,488.857 249.364,491.729 255.629 C 494.481 261.633,494.469 262.105,491.552 263.023 L 489.095 263.796 488.804 261.973 C 488.404 259.474,486.963 257.813,484.319 256.803 C 481.542 255.742,481.309 255.156,482.693 252.703 L 483.794 250.750 480.632 247.625 C 478.893 245.906,477.364 244.500,477.235 244.500 C 476.688 244.500,477.092 247.329,477.766 248.221 C 478.781 249.563,478.684 250.500,477.528 250.500 C 476.149 250.500,475.171 248.863,473.734 244.151 C 472.236 239.239,471.148 238.139,468.925 239.289 C 467.315 240.121,467.113 241.056,468.326 242.063 C 469.087 242.694,474.811 250.117,477.412 253.845 L 478.525 255.440 475.513 258.369 C 473.675 260.156,472.500 260.992,472.500 260.511 C 472.500 258.980,470.969 257.570,468.375 256.713 C 466.931 256.237,465.274 255.537,464.692 255.160 C 463.317 254.267,462.680 258.764,462.183 272.875 L 461.844 282.500 463.047 282.489 C 464.794 282.473,466.172 281.173,468.335 277.500 C 470.129 274.455,470.260 274.341,470.414 275.682 C 470.738 278.516,469.121 282.091,464.674 288.375 C 463.892 289.480,463.910 289.500,465.653 289.500 C 469.030 289.500,469.826 292.425,466.848 293.891 C 465.768 294.423,465.244 294.407,463.773 293.792 C 462.119 293.101,462.000 293.112,462.000 293.964 C 462.000 295.205,462.795 295.776,466.012 296.842 C 468.513 297.671,468.764 297.891,468.907 299.375 C 469.087 301.245,469.002 301.263,464.822 300.265 C 461.523 299.477,459.772 299.855,459.261 301.467 C 458.659 303.363,459.373 303.658,463.818 303.344 C 469.732 302.926,472.000 303.931,472.000 306.967 C 472.000 308.273,471.013 308.282,468.500 307.000 C 465.261 305.347,462.819 306.366,464.792 308.546 C 465.528 309.360,465.792 310.739,466.060 315.162 C 466.245 318.235,466.421 320.798,466.449 320.858 C 466.763 321.517,469.714 324.500,470.052 324.500 C 470.298 324.500,470.500 323.942,470.500 323.260 C 470.500 321.926,470.762 321.814,475.194 321.236 C 477.967 320.875,477.983 320.963,475.759 324.486 C 474.101 327.113,473.259 327.417,471.701 325.954 L 470.453 324.782 470.852 327.016 C 472.358 335.465,470.696 341.664,466.280 344.069 C 463.513 345.576,463.318 345.300,469.117 348.077 C 470.949 348.954,472.339 350.033,472.966 351.065 C 474.416 353.449,473.690 353.788,471.457 351.770 C 468.201 348.829,466.071 349.976,469.097 353.041 C 470.597 354.560,470.658 354.730,469.750 354.885 C 465.579 355.597,464.493 357.519,464.119 364.847 C 463.902 369.112,463.723 370.001,463.130 369.773 C 459.655 368.440,457.628 369.183,455.438 372.596 L 453.841 375.086 452.602 372.480 C 451.921 371.047,449.936 368.360,448.190 366.510 C 443.786 361.841,443.275 360.764,444.609 358.959 C 446.708 356.120,446.328 347.823,443.962 344.815 C 442.296 342.697,442.158 343.114,441.864 351.125 C 441.392 364.022,438.971 371.452,429.760 388.270 C 421.489 403.372,419.162 410.031,418.654 420.045 C 418.292 427.189,417.106 426.545,431.500 427.025 C 439.247 427.284,443.655 427.651,445.658 428.203 C 448.248 428.917,448.649 428.922,449.319 428.252 C 449.733 427.839,450.503 427.500,451.031 427.500 C 452.307 427.500,454.799 424.016,458.230 417.436 C 461.496 411.169,461.635 410.567,459.131 413.535 C 458.103 414.753,455.682 417.438,453.751 419.500 C 451.820 421.563,449.841 423.813,449.353 424.500 L 448.465 425.750 448.774 423.250 C 449.212 419.707,450.312 417.536,454.984 411.000 C 457.245 407.837,459.781 403.900,460.620 402.250 C 462.375 398.798,462.903 399.189,462.965 403.989 L 463.000 406.727 464.852 403.597 C 465.870 401.876,467.951 398.927,469.477 397.045 C 471.002 395.163,474.233 391.177,476.656 388.186 C 482.137 381.423,484.714 376.468,484.714 372.694 C 484.714 369.169,483.732 368.068,483.272 371.077 C 482.699 374.822,481.253 377.005,479.351 377.000 C 479.296 377.000,479.275 369.856,479.305 361.125 C 479.362 344.394,479.676 341.252,481.639 337.789 C 483.545 334.424,483.999 334.863,484.011 340.083 L 484.022 344.750 485.030 343.500 C 488.572 339.107,494.708 324.020,497.462 312.932 C 505.747 279.573,502.266 252.853,488.447 243.750 C 486.551 242.501,485.000 241.178,485.000 240.810 C 485.000 239.462,480.810 235.434,477.328 233.434 C 475.360 232.304,472.838 230.860,471.723 230.226 C 470.237 229.381,471.777 231.167,477.484 236.911 M269.467 231.033 C 268.199 232.301,268.652 233.000,271.698 234.475 C 274.371 235.769,276.223 235.777,277.500 234.500 C 278.733 233.267,278.797 232.000,277.625 232.000 C 277.144 232.000,275.566 231.550,274.120 231.000 C 270.863 229.762,270.737 229.763,269.467 231.033 M278.693 242.719 C 277.693 245.325,279.816 249.000,282.321 249.000 C 285.526 249.000,283.831 243.104,280.377 242.237 C 279.352 241.980,278.930 242.100,278.693 242.719 M487.401 273.375 C 487.641 273.856,488.125 275.587,488.476 277.221 C 488.917 279.273,489.562 280.639,490.561 281.638 C 493.291 284.368,490.845 284.830,485.940 282.510 L 482.790 281.021 482.761 276.760 L 482.731 272.500 484.848 272.500 C 486.365 272.500,487.089 272.748,487.401 273.375 M484.817 300.954 C 489.736 312.425,489.738 317.980,484.825 322.750 L 482.250 325.250 482.086 323.816 C 481.946 322.594,482.845 316.069,483.800 311.375 C 484.067 310.062,483.991 310.000,482.127 310.000 C 478.111 310.000,477.022 307.263,475.710 293.875 C 475.346 290.162,473.799 289.966,472.752 293.500 C 472.245 295.212,471.030 296.500,469.923 296.500 C 467.640 296.500,469.942 291.431,474.050 287.412 L 477.104 284.423 479.845 290.087 C 481.352 293.201,483.589 298.092,484.817 300.954 M473.772 311.375 C 473.585 312.406,473.310 313.755,473.162 314.373 C 472.899 315.468,472.967 315.488,475.946 315.177 C 479.358 314.820,479.813 315.288,477.683 316.964 C 476.201 318.129,473.124 318.340,470.575 317.451 C 469.015 316.907,468.600 316.306,469.430 315.793 C 469.667 315.647,470.005 314.475,470.181 313.189 C 470.565 310.383,471.208 309.500,472.867 309.500 C 474.032 309.500,474.090 309.620,473.772 311.375 M439.760 330.989 C 438.503 332.378,439.000 335.384,441.006 338.509 C 443.253 342.011,443.500 341.713,443.500 335.500 L 443.500 330.000 442.077 330.000 C 441.295 330.000,440.252 330.445,439.760 330.989 M45.510 356.058 C 42.794 357.142,40.386 360.388,42.736 359.798 C 43.874 359.513,44.363 359.771,45.926 361.480 C 47.834 363.567,49.662 364.101,50.190 362.725 C 50.354 362.299,51.784 361.379,53.369 360.682 C 56.515 359.296,58.000 358.187,58.000 357.224 C 58.000 355.918,48.163 355.000,45.510 356.058 M461.288 358.426 C 459.856 361.195,456.545 362.450,453.751 361.283 L 451.993 360.548 452.320 361.899 C 453.234 365.680,453.981 366.190,456.500 364.750 C 458.172 363.794,458.336 363.820,458.670 365.097 C 459.061 366.591,460.500 365.330,461.968 362.207 C 463.695 358.533,463.060 355.000,461.288 358.426 M35.118 366.719 C 31.463 369.108,27.843 370.500,25.284 370.500 C 23.419 370.500,23.750 377.699,25.678 379.068 C 25.924 379.243,26.239 380.979,26.379 382.926 L 26.632 386.465 28.691 385.273 C 29.823 384.618,31.746 383.819,32.963 383.498 C 37.277 382.360,38.527 380.761,35.503 380.250 C 32.947 379.819,32.565 379.158,34.098 377.820 C 36.149 376.028,36.499 375.272,37.250 371.000 C 37.955 366.991,38.411 365.913,39.946 364.625 C 41.988 362.912,38.879 364.261,35.118 366.719 M23.000 384.303 C 23.000 384.469,23.352 385.964,23.782 387.625 C 25.191 393.062,24.969 394.414,22.262 396.864 L 19.903 399.000 25.327 399.014 C 28.309 399.022,34.913 399.353,40.000 399.750 C 55.110 400.929,55.161 400.898,43.750 397.479 C 32.491 394.106,24.500 389.537,24.500 386.472 C 24.500 385.227,23.977 384.000,23.447 384.000 C 23.201 384.000,23.000 384.136,23.000 384.303 " stroke="none" fill="#0e163d" fill-rule="evenodd"></path></g></svg>